<?xml version="1.0" encoding="UTF-8"?><svg id="Ebene_11" xmlns="http://www.w3.org/2000/svg" viewBox="0 0 768 768"><defs><style>.cls-1,.cls-2,.cls-3,.cls-4,.cls-5,.cls-6{stroke-width:4px;}.cls-1,.cls-2,.cls-3,.cls-5,.cls-6{stroke-miterlimit:10;}.cls-1,.cls-3,.cls-4,.cls-5,.cls-6{stroke:#eb5291;}.cls-1,.cls-4{fill:#ff89c3;}.cls-2{stroke:#fff;}.cls-2,.cls-6{fill:none;}.cls-7,.cls-3{fill:#ffb7e5;}.cls-4{stroke-linecap:round;stroke-linejoin:round;}.cls-5{fill:#fd70b2;}</style></defs><rect class="cls-1" y="-.01" width="768" height="768.06"/><polygon class="cls-1" points="684.29 295.59 578.86 145.69 494.5 243.16 547.99 306.59 688.92 302.92 684.29 295.59"/><polygon class="cls-1" points="772.49 418.05 693.01 306.64 772.49 186.45 772.49 418.05"/><polygon class="cls-3" points="693.01 306.64 627.18 395.56 772.49 436.42 699.84 479.01 775.48 565.9 775.48 425.02 693.01 306.64"/><polygon class="cls-3" points="779.09 119.09 674.98 34.62 578.86 145.69 693.01 306.64 772.49 186.45 779.09 119.09"/><polygon class="cls-5" points="688.92 302.92 549.17 305.96 627.18 395.56 688.92 302.92"/><polygon class="cls-1" points="545.62 301.88 445.92 402.46 398.63 353.94 494.5 243.16 545.62 301.88"/><polygon class="cls-7" points="158.13 107.23 303.57 256.55 178.92 373.3 38.95 248.46 158.13 107.23"/><polygon class="cls-3" points="14.9 525.59 108.4 438.78 178.92 373.3 401.12 566.23 248.96 713.13 14.9 525.59"/><polygon class="cls-5" points="206.36 576.11 308 459.63 253.7 644.05 206.36 576.11"/><polyline class="cls-1" points="108.4 438.78 38.95 248.46 -17.25 201.03 -8.27 271.16"/><polygon class="cls-1" points="626.42 -4.78 674.98 34.62 710.9 -6.89 626.42 -4.78"/><polygon class="cls-1" points="469.67 -7.89 578.86 145.69 674.98 34.62 582.22 -40.64 469.67 -7.89"/><polygon class="cls-3" points="603.99 -22.38 527.55 48.6 674.98 34.62 603.99 -22.38"/><polygon class="cls-1" points="717.65 -14.69 674.98 34.62 771.59 113 771.59 -6.1 717.65 -14.69"/><polygon class="cls-4" points="227.57 787.82 80.91 721.07 -3.96 673.87 -4.65 771.59 227.57 787.82"/><line class="cls-6" x1="27.37" y1="782.94" x2="724.3" y2="-22.38"/><line class="cls-6" x1="-13.5" y1="550.94" x2="620.65" y2="-37.84"/><line class="cls-6" x1="779.09" y1="177.02" x2="358.64" y2="777.87"/><line class="cls-6" x1="789.32" y1="127.39" x2="572.28" y2="-48.7"/><line class="cls-6" x1="464.84" y1="-14.69" x2="820.24" y2="485.21"/><line class="cls-6" x1="787.8" y1="580.05" x2="245.79" y2="-42.52"/><polygon class="cls-3" points="627.18 395.56 588.41 548.63 547.99 507.24 627.18 395.56"/><line class="cls-3" x1="779.09" y1="744.24" x2="31.78" y2="-22.38"/><polygon class="cls-3" points="-7.37 44.04 99.73 -14.69 -8.27 -14.69 -7.37 44.04"/><line class="cls-6" x1="-8.27" y1="209.36" x2="680.8" y2="807.64"/><line class="cls-6" x1="-25.88" y1="246.1" x2="388.59" y2="836.06"/><line class="cls-6" x1="-30.56" y1="489.7" x2="422.73" y2="852.02"/><polygon class="cls-5" points="108.63 437.56 68.68 565.01 152.89 637.89 108.63 437.56"/><polygon class="cls-1" points="78.19 113.23 109.45 81.32 68.75 81.32 68.75 34.79 41.48 77.31 14.2 34.79 14.2 81.32 -26.49 81.32 4.77 113.23 -26.49 145.14 14.2 145.14 14.2 192.41 41.48 147.89 68.75 192.41 68.75 145.14 109.45 145.14 78.19 113.23"/><path class="cls-3" d="M195.09-10.09l-35.17,111.66c-.54,1.71-2.96,1.69-3.47-.03L123.32-10.09h71.76Z"/><polygon class="cls-1" points="271.93 -5.6 340.62 230.16 158.13 107.23 192.87 -3.52 271.93 -5.6"/><line class="cls-6" x1="270.63" y1="-10.09" x2="524.15" y2="860.12"/><polygon class="cls-2" points="732.6 155.13 769.81 117.78 721.37 117.78 721.37 63.32 688.92 113.08 656.46 63.32 656.46 117.78 608.03 117.78 645.24 155.13 608.03 192.49 656.46 192.49 656.46 247.82 688.92 195.71 721.37 247.82 721.37 192.49 769.81 192.49 732.6 155.13"/><polygon class="cls-1" points="158.85 106.38 447.45 297.52 398.63 353.94 158.85 106.38"/><path class="cls-3" d="M208.15,237.31l37.64-37.28h-49v-52.49c0-.55-.72-.77-1.02-.31l-31.81,48.11-32.83-49.66v54.35h-49l37.64,37.28-37.64,37.28h49v55.22l32.83-52,32.83,52v-55.22h49l-37.64-37.28Z"/><path class="cls-1" d="M240.39,470.24l26.86-27.02h-34.96v-39.39l-23.43,35.99-23.43-35.99v39.39h-34.97l26.86,27.02-26.1,26.25c-.28.28-.08.77.32.77h33.89v40.02l23.43-37.69,23.43,37.69v-40.02h34.96l-26.86-27.02Z"/><polygon class="cls-6" points="36.46 411.8 63.32 384.78 28.35 384.78 28.35 345.39 4.92 381.39 -18.51 345.39 -18.51 384.78 -53.47 384.78 -26.61 411.8 -53.47 438.82 -18.51 438.82 -18.51 478.84 4.92 441.15 28.35 478.84 28.35 438.82 63.32 438.82 36.46 411.8"/><path class="cls-1" d="M572.72,407.3l26.86-27.02h-34.96v-39.39l-23.43,35.99-23.43-35.99v39.39h-34.97l26.86,27.02-26.86,27.02h34.97v38.33c0,.49.64.67.89.26l22.54-36.25,23.43,37.69v-40.02h32.03c1.08,0,1.63-1.31.86-2.08l-24.79-24.94Z"/><polygon class="cls-1" points="621.72 632.93 643.29 611.23 615.21 611.23 615.21 579.6 596.4 608.5 577.59 579.6 577.59 611.23 549.51 611.23 571.08 632.93 549.51 654.62 577.59 654.62 577.59 686.76 596.4 656.49 615.21 686.76 615.21 654.62 643.29 654.62 621.72 632.93"/><polygon class="cls-1" points="812.58 302.53 839.43 269.71 804.47 269.71 804.47 221.85 781.04 265.58 757.61 221.85 757.61 269.71 722.64 269.71 749.5 302.53 722.64 335.36 757.61 335.36 757.61 383.99 781.04 338.19 804.47 383.99 804.47 335.36 839.43 335.36 812.58 302.53"/><path class="cls-1" d="M72.71,631.12l22.28-24.09h-29.01v-35.12l-19.44,32.09-19.44-32.09v35.12H-1.9l22.28,24.09-22.28,24.09h29.01v29.35c0,1.74,2.3,2.36,3.17.85l16.27-28.12,19.44,33.6v-35.68h29.01l-22.28-24.09Z"/><polygon class="cls-3" points="547.99 507.24 588.41 548.63 458.58 635.05 547.99 507.24"/><line class="cls-6" x1="265.81" y1="-20.37" x2="-32.61" y2="333.27"/><polygon class="cls-1" points="277.93 -5.6 469.67 -7.89 516.79 58.39 415.6 152.53 277.93 -5.6"/><polyline class="cls-2" points="381.31 -40.64 381.31 -33.32 336.27 -33.32 370.86 2.67 336.27 38.66 381.31 38.66 381.31 91.97 411.49 41.76 441.67 91.97 441.67 38.66 486.71 38.66 452.12 2.67 486.71 -33.32 441.67 -33.32 441.67 -85.79 411.49 -37.84 381.31 -85.79 381.31 -40.64"/><polygon class="cls-3" points="578.86 145.69 494.5 243.16 415.6 152.53 516.79 58.39 578.86 145.69"/><polygon class="cls-3" points="547.99 507.24 368.28 322.81 458.58 635.05 547.99 507.24"/><polygon class="cls-3" points="770.51 560.19 685.81 648.55 772.81 737.79 770.51 560.19"/><polygon class="cls-5" points="727.7 604.85 772.81 737.79 685.81 648.55 727.7 604.85"/><polyline class="cls-5" points="627.18 395.56 772.49 436.42 699.84 479.01 627.18 395.56"/><polyline class="cls-3" points="588.41 548.63 699.84 479.01 627.18 395.56 588.41 548.63"/><polygon class="cls-3" points="578.86 145.69 545.62 301.88 494.5 243.16 578.86 145.69"/><polygon class="cls-7" points="-5.05 544.11 14.9 525.59 -5.05 510.45 -5.05 544.11"/><line class="cls-3" x1="152.89" y1="637.89" x2="181.36" y2="768"/><polygon class="cls-3" points="178.92 373.3 38.95 248.46 108.4 438.78 178.92 373.3"/><polygon class="cls-3" points="770.51 560.19 699.84 479.01 588.41 548.63 685.81 648.55 770.51 560.19"/><polygon class="cls-3" points="707.85 565.65 729.41 543.96 701.34 543.96 701.34 512.33 682.52 541.23 663.71 512.33 663.71 543.96 635.63 543.96 657.2 565.65 635.63 587.35 663.71 587.35 663.71 619.48 682.52 589.22 701.34 619.48 701.34 587.35 729.41 587.35 707.85 565.65"/><polygon class="cls-3" points="768 768.05 772.81 737.79 685.81 648.55 604.9 741.74 635.63 768 768 768.05"/></svg>