<svg xmlns="http://www.w3.org/2000/svg" width="716" height="704" viewBox="0 0 716 704">
<rect width="716" height="704" fill="#3d0c14"/>
<g><rect x="194" y="171" width="292" height="369" fill="#f5f9fc"/><circle cx="511" cy="322" r="63" fill="#f5f9fc"/></g>
<g><path d="M 337.0 279.0 C 341.0 282.5 332.3 303.8 334.0 314.0 C 335.7 324.2 349.3 337.3 347.0 340.0 C 344.7 342.7 328.7 335.0 320.0 330.0 C 311.3 325.0 296.7 316.2 295.0 310.0 C 293.3 303.8 303.0 298.2 310.0 293.0 C 317.0 287.8 333.0 275.5 337.0 279.0 Z" fill="#3d0c14"/><path d="M 417.0 274.0 C 422.2 275.2 435.8 279.8 443.0 284.0 C 450.2 288.2 460.7 292.3 460.0 299.0 C 459.3 305.7 447.2 317.5 439.0 324.0 C 430.8 330.5 413.8 339.5 411.0 338.0 C 408.2 336.5 420.2 322.0 422.0 315.0 C 423.8 308.0 423.7 302.3 422.0 296.0 C 420.3 289.7 412.8 280.7 412.0 277.0 C 411.2 273.3 411.8 272.8 417.0 274.0 Z" fill="#3d0c14"/><path d="M 193.0 340.0 C 192.5 347.7 192.8 394.7 193.0 399.0 C 193.2 403.3 189.7 367.7 194.0 366.0 C 198.3 364.3 209.0 385.0 219.0 389.0 C 229.0 393.0 247.7 391.7 254.0 390.0 C 260.3 388.3 260.5 381.7 257.0 379.0 C 253.5 376.3 239.3 378.8 233.0 374.0 C 226.7 369.2 225.2 353.5 219.0 350.0 C 212.8 346.5 200.3 354.7 196.0 353.0 C 191.7 351.3 193.5 332.3 193.0 340.0 Z" fill="#3d0c14"/><line x1="491" y1="295" x2="539" y2="352" stroke="#3d0c14" stroke-width="12" stroke-linecap="round"/><line x1="536" y1="294" x2="494" y2="351" stroke="#3d0c14" stroke-width="12" stroke-linecap="round"/></g>
</svg>